<?xml version="1.0" standalone="no"?>
<!DOCTYPE svg PUBLIC "-//W3C//DTD SVG 20010904//EN"
 "http://www.w3.org/TR/2001/REC-SVG-20010904/DTD/svg10.dtd">
<svg version="1.0" xmlns="http://www.w3.org/2000/svg"
 width="700.000000pt" height="700.000000pt" viewBox="0 0 700.000000 700.000000"
 preserveAspectRatio="xMidYMid meet">
<metadata>
Created by potrace 1.14, written by Peter Selinger 2001-2017
</metadata>
<g transform="translate(0.000000,700.000000) scale(0.100000,-0.100000)"
fill="#000000" stroke="none">
<path d="M2430 6829 c-499 -51 -809 -265 -913 -629 -13 -47 -30 -115 -37 -151
l-12 -66 -111 -6 c-62 -3 -137 -13 -167 -22 -160 -49 -298 -176 -363 -335 -21
-53 -22 -67 -25 -458 -3 -448 -1 -466 62 -597 84 -171 282 -316 469 -341 26
-4 47 -10 47 -15 0 -4 -19 -36 -43 -71 -96 -139 -275 -238 -434 -238 l-53 0 0
-244 0 -243 78 -6 c190 -13 363 -130 452 -306 67 -133 63 -89 71 -936 4 -522
10 -794 18 -844 48 -291 143 -481 308 -612 183 -145 437 -221 791 -236 l152
-6 0 -121 c0 -77 5 -130 13 -146 16 -31 61 -54 91 -46 12 3 170 129 351 280
323 271 328 275 349 258 12 -9 156 -129 320 -267 163 -137 310 -256 326 -264
24 -12 34 -12 61 -1 47 20 59 59 59 195 l0 115 83 0 c292 0 590 69 770 177 91
55 214 178 266 267 43 72 84 187 113 314 21 94 22 124 28 882 6 765 7 787 28
863 32 115 76 192 158 274 105 105 239 163 374 163 l50 0 0 245 0 245 -50 0
c-170 0 -355 104 -452 255 l-39 59 68 12 c224 38 411 200 494 427 22 60 23 76
27 454 4 429 1 454 -55 570 -35 72 -121 165 -197 215 -84 54 -170 78 -304 85
-104 6 -113 8 -117 27 -43 220 -80 324 -151 429 -170 248 -491 385 -951 404
l-153 6 0 -246 0 -247 63 0 c92 0 244 -25 321 -54 85 -31 166 -85 201 -136 27
-39 74 -145 75 -167 0 -10 -294 -13 -1436 -13 l-1436 0 6 33 c10 48 51 127 92
175 74 86 250 147 462 159 l102 6 0 244 0 243 -107 -1 c-60 -1 -146 -6 -193
-10z m430 -1661 c0 -395 -3 -410 -71 -459 -31 -22 -47 -24 -209 -32 -96 -5
-406 -6 -688 -3 -571 6 -560 5 -608 75 l-24 36 0 346 c0 317 1 347 18 361 9 9
24 18 32 21 8 3 360 6 783 6 l767 1 0 -352z m2871 323 c18 -22 19 -43 19 -361
0 -334 0 -337 -23 -371 -12 -18 -37 -43 -55 -55 -29 -20 -49 -22 -279 -29
-137 -4 -445 -5 -687 -1 -484 7 -472 6 -523 73 l-28 36 -3 369 -3 368 782 -2
781 -3 19 -24z m-2143 -332 c26 -13 54 -38 70 -62 25 -38 27 -48 33 -206 7
-188 23 -253 86 -359 54 -90 173 -201 264 -246 132 -64 149 -66 585 -66 l391
0 14 -47 c51 -186 177 -374 323 -481 l49 -36 -34 -25 c-164 -124 -286 -303
-342 -506 -46 -168 -50 -224 -57 -990 -6 -703 -7 -733 -27 -807 -43 -152 -103
-232 -217 -288 -96 -46 -258 -80 -387 -80 l-47 0 -4 136 c-3 135 -3 136 -31
160 -33 28 -73 31 -107 7 -14 -9 -163 -133 -332 -275 -169 -142 -310 -258
-314 -258 -3 0 -154 124 -335 275 -290 242 -333 275 -363 275 -26 0 -40 -7
-60 -31 -25 -29 -26 -35 -26 -161 l0 -131 -102 7 c-365 23 -520 144 -568 441
-6 34 -10 314 -10 635 0 758 -14 954 -80 1149 -56 167 -174 333 -302 425 l-55
40 71 56 c140 111 250 277 300 453 l17 57 392 0 c432 0 462 3 584 62 80 38
223 174 267 253 61 110 79 187 84 355 3 122 8 162 22 190 46 91 153 125 248
79z"/>
<path d="M2350 5317 c-19 -6 -61 -36 -92 -67 -46 -45 -60 -66 -73 -114 -53
-184 75 -358 265 -360 238 -2 367 274 215 460 -52 63 -122 94 -209 93 -39 -1
-87 -6 -106 -12z"/>
<path d="M4435 5306 c-98 -45 -154 -137 -155 -251 0 -303 408 -387 531 -110
60 135 -1 297 -136 361 -69 33 -170 33 -240 0z"/>
<path d="M2526 3593 c-25 -37 -46 -72 -46 -78 0 -20 179 -137 305 -199 208
-103 373 -149 599 -166 289 -22 571 33 831 160 103 51 268 155 299 189 17 18
15 22 -30 90 -26 39 -48 71 -50 71 -1 0 -39 -25 -83 -55 -161 -111 -365 -194
-576 -232 -127 -24 -416 -23 -550 1 -224 40 -436 131 -632 272 -21 15 -23 13
-67 -53z"/>
</g>
</svg>
